<svg width="93" height="21" viewBox="0 0 93 21" fill="none" xmlns="http://www.w3.org/2000/svg">
<path fill-rule="evenodd" clip-rule="evenodd" d="M5.95251 17.6648L11.7227 13.6616C13.0307 12.7547 14.0162 11.4527 14.5359 9.945C15.0555 8.43733 15.0822 6.80262 14.612 5.27868C14.1419 3.75475 13.1993 2.42108 11.9216 1.4717C10.6439 0.522324 9.09758 0.00675588 7.50766 0L0 0V14.8937L5.95251 17.6648Z" fill="#DE1D15"/>
<path fill-rule="evenodd" clip-rule="evenodd" d="M0 0V20H14.951L0 0Z" fill="#FF3725"/>
<path fill-rule="evenodd" clip-rule="evenodd" d="M90.2777 13.9627H92.3531L88.7226 6.51587H87.8431L84.2233 13.9574H86.2879L86.8242 12.7306H89.7736L90.3099 13.9574L90.2777 13.9627ZM88.2721 9.3192L89.0658 11.1863H87.457L88.2721 9.3192Z" fill="#323338"/>
<path d="M83.0167 6.52148H81.0217V13.963H83.0167V6.52148Z" fill="#323338"/>
<path fill-rule="evenodd" clip-rule="evenodd" d="M72.8276 6.51587V13.9627H76.3562C78.3189 13.9627 79.8097 12.1763 79.8097 10.2501C79.8111 9.26348 79.4223 8.31665 78.7285 7.61752C78.0347 6.91839 77.0928 6.5241 76.1095 6.52125L72.8276 6.51587ZM74.7581 12.2302V8.24845H76.1095C76.3022 8.24925 76.4931 8.28574 76.6726 8.35606C77.0318 8.52151 77.3346 8.78925 77.5434 9.12599C77.7522 9.46273 77.8578 9.85362 77.847 10.2501C77.8599 10.6469 77.7552 11.0387 77.5462 11.3758C77.3371 11.713 77.0331 11.9803 76.6726 12.1441C76.501 12.2077 76.3192 12.2387 76.1363 12.2355L74.7581 12.2302Z" fill="#323338"/>
<path fill-rule="evenodd" clip-rule="evenodd" d="M70.2589 11.0305V9.48086H67.481V8.13031H71.2617V6.52148H65.5505V13.963H71.2617V12.3541H67.481V11.0305H70.2589Z" fill="#323338"/>
<path fill-rule="evenodd" clip-rule="evenodd" d="M63.0785 6.52148L60.0647 10.3579L57.0402 6.52148H56.1607V13.963H58.1556V10.7722L60.0647 13.1989L61.9738 10.7722V13.963H63.9687V6.52148H63.0785Z" fill="#323338"/>
<path fill-rule="evenodd" clip-rule="evenodd" d="M54.858 6.52148H52.4984L49.9136 9.6369V6.52148H47.9831V13.963H49.9136V12.3595L50.4284 11.7192L52.3697 13.963H54.9706L51.6994 10.2503L54.858 6.52148Z" fill="#323338"/>
<path fill-rule="evenodd" clip-rule="evenodd" d="M45.2744 9.02339L46.7921 7.77507C46.4219 7.34638 45.9639 7.00286 45.4493 6.76793C44.9348 6.533 44.3758 6.4122 43.8105 6.41376C42.7844 6.40369 41.7961 6.80157 41.0615 7.52045C40.327 8.23933 39.9059 9.22074 39.8904 10.2502C39.9115 11.2744 40.3356 12.2487 41.07 12.9604C41.8044 13.6721 42.7895 14.0634 43.8105 14.049C44.3749 14.0519 44.9334 13.9327 45.4479 13.6997C45.9624 13.4666 46.4209 13.1251 46.7921 12.6984L45.2744 11.4501C45.1171 11.6975 44.9009 11.9018 44.6454 12.0445C44.3898 12.1873 44.1029 12.2641 43.8105 12.2679C43.4868 12.2726 43.168 12.1889 42.8881 12.0258C42.5862 11.8373 42.3401 11.5714 42.1751 11.2554C42.0101 10.9394 41.9323 10.5849 41.9496 10.2287C41.9299 9.87636 42.0033 9.52507 42.1625 9.21041C42.3216 8.89575 42.5608 8.6289 42.8559 8.4369C43.1455 8.26765 43.4753 8.18026 43.8105 8.18401C44.1049 8.19019 44.3931 8.27024 44.6489 8.41686C44.9046 8.56348 45.1196 8.77199 45.2744 9.02339Z" fill="#323338"/>
<path fill-rule="evenodd" clip-rule="evenodd" d="M35.1661 6.42429C34.1382 6.40845 33.1459 6.80232 32.407 7.51949C31.6681 8.23667 31.2429 9.21862 31.2245 10.25C31.2622 11.2729 31.6936 12.2413 32.4282 12.9517C33.1628 13.662 34.1432 14.0589 35.1634 14.0589C36.1836 14.0589 37.164 13.662 37.8986 12.9517C38.6332 12.2413 39.0646 11.2729 39.1022 10.25C39.0853 9.2191 38.6612 8.23715 37.9232 7.51982C37.1851 6.8025 36.1935 6.40846 35.1661 6.42429ZM35.1661 12.3C34.6431 12.2804 34.1491 12.0536 33.7923 11.6694C33.4355 11.2852 33.245 10.7748 33.2623 10.25C33.2486 9.99022 33.2877 9.73041 33.3773 9.48634C33.4669 9.24228 33.6051 9.01908 33.7835 8.83036C33.9619 8.64163 34.1767 8.49133 34.4149 8.38862C34.653 8.28591 34.9095 8.23294 35.1688 8.23294C35.428 8.23294 35.6845 8.28591 35.9226 8.38862C36.1608 8.49133 36.3756 8.64163 36.554 8.83036C36.7324 9.01908 36.8706 9.24228 36.9602 9.48634C37.0498 9.73041 37.0889 9.99022 37.0752 10.25C37.0845 10.5105 37.0424 10.7703 36.9514 11.0144C36.8604 11.2586 36.7223 11.4823 36.5449 11.6728C36.3676 11.8632 36.1544 12.0167 35.9178 12.1243C35.6812 12.232 35.4257 12.2917 35.1661 12.3Z" fill="#323338"/>
<path fill-rule="evenodd" clip-rule="evenodd" d="M28.0874 13.9637H30.463L28.8542 11.9836L28.9615 11.9244C29.9536 11.3864 30.2914 10.4232 30.2914 9.33631C30.3029 8.82494 30.1887 8.31861 29.9589 7.86201C29.4227 6.8343 28.3501 6.52222 27.2454 6.52222H23.7758V13.9637H25.7707V12.3495H26.8057C26.8407 12.3393 26.8779 12.3393 26.913 12.3495L28.0659 13.9637H28.0874ZM25.7707 8.13104H26.8915C27.0725 8.11724 27.2542 8.14367 27.4238 8.20845C27.5934 8.27323 27.7467 8.37476 27.8727 8.50581C27.9987 8.63686 28.0943 8.79419 28.1527 8.96657C28.2112 9.13896 28.231 9.32217 28.2107 9.50311C28.2107 10.4125 27.5404 10.7945 26.7092 10.7945H25.7707V8.13104Z" fill="#323338"/>
</svg>
